<svg xmlns="http://www.w3.org/2000/svg" width="65" height="83">
  <g fill="#0F2EFA" fill-rule="evenodd">
    <path d="M54.173.21l.13.002.117.004.114.005.132.01.134.01.114.01.13.01.135.02.11.02.11.02.13.02.13.02.11.02.13.03.12.03.11.02.12.03.12.03.12.03.12.03.11.03.12.04.13.04.11.04.12.04.1.04.12.05.11.04.11.05.13.05.1.05.11.05.11.05.1.05.13.06.11.05.1.05.12.06.11.06.11.06.11.06.09.06.11.06.1.07.1.07.1.07.11.07.1.07.1.07.1.08.09.07.1.08.1.08.09.08.1.09.1.08.11.09.09.08.08.08.09.09.09.09.1.1.08.09.08.08.09.09.09.1.09.1.06.07.09.1.09.11.067.08.09.11.07.09.07.09.08.11.08.11.08.11.07.1.054.09.07.12.06.1.055.09.08.14.05.093.06.1.08.15.05.09.05.09.06.13.05.1.06.12.052.12.045.1.05.12.054.13.04.1.04.09.06.15.05.13.02.07.05.13.05.163.03.096.03.095.04.14.03.13.03.13.03.1.03.13.03.13.02.1.023.13.025.13.02.13L64 9l.02.1.01.1.02.17.018.14.01.1.01.13.01.13.006.13.01.13.007.1v62.93l-.01.13-.01.13-.01.13-.01.1-.01.13-.02.17-.01.1-.02.1-.02.13-.03.13-.03.13-.02.13-.02.1-.03.13-.03.13-.02.096-.03.13-.03.13-.04.13-.03.1-.03.1-.05.15-.05.13-.02.06-.04.13-.06.16-.04.095-.04.1-.05.13-.05.12-.04.1-.05.12-.06.12-.05.09-.06.13-.05.09-.05.1-.08.15-.06.09-.05.09-.09.15-.06.1-.05.08-.07.11-.07.1-.06.09-.076.11-.08.11-.09.12-.07.09-.06.08-.09.11-.08.1-.09.1-.09.1-.063.08-.1.11-.094.1-.08.08-.08.08-.09.09-.107.1-.087.08-.09.08-.11.09-.1.08-.09.08-.09.08-.12.1-.1.08-.077.06-.1.08-.1.07-.11.08-.11.08-.105.07-.1.06-.1.07-.12.08-.11.07-.11.06-.09.055-.11.06-.12.07-.11.06-.11.06-.1.05-.11.053-.12.056-.1.048-.124.06-.11.05-.11.04-.13.05-.115.04-.12.04-.123.04-.11.03-.11.04-.13.04-.12.04-.11.03-.13.04-.12.03-.13.03-.13.03-.09.02-.11.03-.15.03-.12.02-.11.02-.13.02-.12.02-.13.015-.13.01-.12.01-.112.01-.15.01-.116.01-.11.01-.13.01-.14.008h-44l-.13-.005-.13-.004-.114-.01-.12-.005-.15-.014-.11-.01-.11-.017-.13-.02-.13-.02-.11-.02-.13-.02-.11-.02-.12-.02-.14-.03-.11-.02-.11-.02-.12-.03-.12-.03-.12-.03-.12-.03-.11-.03-.11-.03-.13-.04-.11-.034-.12-.04L7 82.2l-.106-.04-.117-.04-.13-.05-.1-.046-.117-.05-.114-.05-.114-.05-.113-.057-.1-.05-.13-.06-.11-.056-.1-.05-.13-.07-.11-.06-.1-.05-.11-.06-.11-.06-.12-.07-.1-.06-.1-.06-.12-.07-.12-.08-.1-.07-.09-.06-.12-.09-.09-.07-.08-.06-.13-.1-.1-.08-.09-.07-.1-.08-.1-.09-.09-.08-.06-.1-.09-.08-.1-.1-.08-.08-.08-.08-.09-.1-.09-.09-.1-.11-.09-.1-.07-.08-.08-.09-.09-.1-.06-.08-.07-.09-.09-.12-.09-.11-.06-.08-.06-.14-.08-.12-.04-.06-.07-.11-.08-.12-.06-.09-.07-.11-.07-.11-.06-.09-.07-.12-.06-.11-.05-.1-.05-.1-.06-.12-.06-.12-.05-.09-.06-.12-.04-.1-.05-.12-.05-.12-.04-.1-.05-.13L.73 76l-.05-.132-.03-.09-.04-.125-.04-.13-.03-.1-.03-.13-.03-.1-.04-.12-.03-.13-.03-.13-.03-.13-.02-.09-.02-.13-.02-.15-.02-.1-.02-.13-.01-.13-.01-.12-.01-.13-.01-.1-.01-.13-.01-.13-.01-.13v-.1l-.01-.13-.01-.164V10.14l.01-.23.002-.134.01-.13.01-.13.02-.23.03-.26.036-.23.02-.13.03-.13.02-.1.02-.13.06-.26.038-.13.03-.09.04-.13.07-.22.04-.13.03-.103.04-.13.045-.13.05-.13.09-.21.05-.13.04-.1.05-.125.05-.1.05-.12.06-.12.048-.1.05-.1.06-.116.06-.114.056-.1.07-.12.07-.12.06-.1.07-.11.07-.116.12-.18.08-.12.07-.09.08-.106.08-.11.07-.09.07-.097.09-.11.06-.08.08-.1.09-.11.09-.1.17-.19.09-.09.08-.08.105-.11.09-.09.09-.09.09-.08.08-.08.09-.09.11-.09.09-.08.11-.08.08-.06.11-.08.11-.09.08-.06.1-.07.11-.08.11-.07.12-.08.1-.07.105-.07.11-.07.11-.07.1-.06.11-.06.11-.06.1-.05.12-.07.12-.06.1-.05.123-.06.23-.08.12-.02.1-.04.13-.05.12-.04.11-.04.13-.05.12-.04.12-.03.11-.04.14-.04.13-.04.11-.03.12-.03.11-.03.126-.03.14-.04.12-.01.11-.02.14-.03.11-.02.13-.02.13-.02.13-.01.12-.014.13-.01.13-.01.12-.01.13-.01h.13l.115-.01.114-.01h.13l.12-.01h43.78zM10.405 4.976h-.068l-.067.002h-.067l-.066.004-.067.004-.067.004-.067.006-.066.006-.066.007-.066.01h-.066l-.066.01-.066.01-.065.01-.065.01-.065.01-.065.01-.065.01-.064.01-.06.01-.06.01-.06.01-.06.02-.06.02-.06.02-.06.02-.06.02-.06.02-.06.02-.06.02-.06.02-.06.02-.06.02-.06.03-.06.02-.06.02-.06.03-.06.03-.05.03-.06.03-.05.03-.06.03-.05.03-.05.03-.05.03-.06.04-.06.03-.05.04-.05.03-.06.04-.07.05-.07.05-.05.04-.05.04-.05.04-.05.05-.05.04-.05.04-.05.04-.05.04-.05.04-.05.04-.04.04-.05.04-.05.05-.04.05-.04.05-.04.05-.04.05-.04.05-.04.05-.04.05-.04.05-.04.05-.04.05-.04.06-.04.05-.04.05-.04.05-.04.05-.03.06-.04.06-.03.05-.03.052-.03.06-.03.053-.03.06-.03.06-.03.06-.03.06-.03.06-.03.06-.02.06-.03.06-.03.06-.03.06-.03.06-.02.06-.02.06-.02.062-.02.063-.02.06-.02.065-.02.06-.02.06-.02.066-.02.08-.02.06-.01.07-.02.07-.01.06-.02.07-.01.07-.015.06-.01.06-.01.06-.01.06-.01.06-.01.06-.01.07-.01.06L5 10l-.005.067-.003.067v.13l-.004.067v62.32l.002.07v.07l.003.07.004.07.005.07.005.07.006.07.008.07.01.07.01.07.01.07.01.07.01.07.02.06.01.07.02.07.02.07.01.06.02.07.02.07.02.07.02.07.02.06.02.07.02.06.02.07.02.06.03.06.03.06.03.06.03.06.02.06.03.06.03.06.03.06.03.06.03.06.03.05.03.06.03.06.03.06.03.06.03.06.03.06.04.06.04.06.03.06.04.06.04.06.04.05.04.06.04.05.04.05.05.056.04.06.05.05.04.05.04.05.04.05.05.05.05.05.05.05.05.048.05.05.05.05.05.05.05.05.05.043.05.04.05.04.05.044.05.04.05.04.05.04.06.04.05.04.05.04.05.04.05.04.06.03.06.04.054.034.06.03.06.04.06.03.05.03.06.03.06.03.058.03.06.03.06.03.06.03.06.03.06.03.06.024.06.03.07.02.06.028.06.025.06.02.06.02.06.02.06.02.066.02.07.02.06.02.07.02.063.015.07.01.06.013.06.02.066.01.07.01.06.01.064.01.07.01.066.01.068.01h.07l.066.01.07.003.07.01.07.008h43.9l.07-.01h.205l.066-.01.07-.01.07-.01.068-.01h.07l.065-.01.065-.01.065-.01.067-.01.07-.01.06-.013.06-.01.06-.01.06-.018.06-.02.06-.01.06-.02.06-.01.06-.02.06-.02.06-.02.06-.02.06-.02.06-.02.06-.02.06-.03.06-.025.06-.03.06-.03.06-.03.06-.03.06-.03.06-.03.06-.03.05-.03.06-.034.06-.03.06-.04.05-.04.06-.03.06-.03.05-.035.06-.03.05-.035.05-.04.05-.04.05-.04.05-.04.05-.04.05-.04.05-.04.05-.04.05-.05.05-.04.05-.04.05-.048.05-.05.05-.04.05-.05.04-.05.05-.05.04-.05.04-.05.04-.05.04-.05.04-.05.04-.06.04-.05.04-.054.04-.05.04-.057.04-.06.04-.06.03-.05.04-.05.04-.057.04-.055.033-.056.04-.054.034-.06.03-.06.03-.06.03-.06.04-.06.03-.06.03-.06.03-.06.03-.06.027-.06.03-.06.03-.06.03-.06.02-.06.02-.06.02-.062.02-.06.027-.07.02-.06.02-.06.02-.064.015-.06.02-.06.016-.07.02-.06.018-.06.015-.06.01-.06.01-.06.01-.063.01-.07.01-.065.01-.07.01-.067.01-.07v-.066l.004-.07.01-.07.01-.07.005-.07v-62.8l-.004-.063-.006-.06V9.9l-.003-.066-.01-.064-.01-.07-.01-.07-.01-.07-.01-.07-.01-.07-.01-.07-.016-.07-.016-.07-.02-.07-.02-.07L59.2 9l-.02-.07-.015-.07-.02-.07-.02-.07-.02-.06-.02-.06-.02-.06-.025-.06-.02-.06-.03-.06-.027-.06-.02-.07-.024-.06-.03-.06-.03-.06-.03-.06-.02-.06-.03-.06-.03-.06-.03-.06-.03-.06-.03-.06-.03-.06-.03-.06-.03-.056-.04-.057-.03-.05-.04-.06-.03-.058-.04-.05-.04-.06-.04-.05-.04-.05-.04-.05-.05-.06-.04-.05-.04-.05-.04-.05-.05-.05-.05-.05-.04-.05-.05-.05-.04-.04-.045-.05-.05-.04-.05-.04-.05-.05-.05-.05-.05-.05-.05-.04-.05-.04-.05-.04-.05-.04-.05-.04-.05-.04-.05-.04-.05-.04-.053-.04-.053-.037-.04-.03-.058-.04-.057-.03-.055-.03-.052-.033-.06-.035-.06-.03-.06-.035-.06-.03-.06-.03-.06-.03-.06-.03-.06-.03-.06-.023-.06-.03-.06-.02-.06-.02-.06-.02-.06-.02-.07-.02-.06-.024-.066-.02-.066-.02-.06-.02-.06-.02-.066-.02-.06-.02-.07-.01-.07-.017-.06-.01-.07-.01-.06-.01-.06-.01-.065-.01-.06-.01-.062-.01-.07-.01-.06-.01h-.123l-.06-.01h-.21L54.25 5H10.41z"/>
    <path d="M10.394 39.14h43.94V11.032h-43.94V39.14zm4.755-4.77h34.43V15.8H15.15v18.57z"/>
    <path fill-rule="nonzero" d="M15.288 38.563l36.405-22.81-2.252-3.607-36.4 22.812"/>
    <path d="M10.605 69.418H30.03v-25.16H10.604v25.16zm4.756-4.768h9.92V49.027h-9.92V64.65z"/>
    <path fill-rule="nonzero" d="M27.88 64.125L16.11 46.738l-3.514 2.387 11.77 17.387m9.564-17.75h19.4V44.51h-19.4m0 14.524h19.4V54.78h-19.4m0 14.525h19.4v-4.253h-19.4"/>
  </g>
</svg>
