<?xml version="1.0" encoding="utf-8"?>
<!-- Generator: Adobe Illustrator 19.1.0, SVG Export Plug-In . SVG Version: 6.00 Build 0)  -->
<svg version="1.1" id="Layer_1" xmlns="http://www.w3.org/2000/svg" xmlns:xlink="http://www.w3.org/1999/xlink" x="0px" y="0px"
	 viewBox="0 0 125.6 125.6" enable-background="new 0 0 125.6 125.6" xml:space="preserve">
<g>
	<g>
		<g>
			<path fill="#E7AB3F" d="M62.8,0C28.1,0,0,28.1,0,62.8c0,34.7,28.1,62.8,62.8,62.8s62.8-28.1,62.8-62.8C125.6,28.1,97.5,0,62.8,0z
				 M62.8,118.3c-30.6,0-55.4-24.8-55.4-55.4c0-30.6,24.8-55.4,55.4-55.4c30.6,0,55.4,24.8,55.4,55.4
				C118.3,93.5,93.5,118.3,62.8,118.3z"/>
		</g>
	</g>
	<g>
		<path fill="#E7AB3F" d="M80.7,56.2V27.4h7.9v71h-7.9V63.5H44.4v34.8h-7.9v-71h7.9v28.8H80.7z"/>
	</g>
</g>
</svg>
