<?xml version="1.0" encoding="utf-8"?>
<!-- Generator: Adobe Illustrator 19.1.0, SVG Export Plug-In . SVG Version: 6.00 Build 0)  -->
<svg version="1.1" id="Layer_1" xmlns="http://www.w3.org/2000/svg" xmlns:xlink="http://www.w3.org/1999/xlink" x="0px" y="0px"
	 viewBox="-74 85.2 137.5 118.8" style="enable-background:new -74 85.2 137.5 118.8;" xml:space="preserve">
<style type="text/css">
	.st0{fill:#E7AB3F;}
	.st1{fill:none;stroke:#E7AB3F;stroke-width:2;stroke-linecap:round;}
	.st2{fill:none;stroke:#E7AB3F;stroke-width:3;stroke-linecap:round;}
	.st3{fill:none;stroke:#E7AB3F;stroke-width:3;stroke-linecap:round;stroke-linejoin:round;}
</style>
<g>
	<path class="st0" d="M-22.5,167.7c6.9-1.6,10.2,4.3,10.2,4.3l-8,5.7L-22.5,167.7z"/>
	<path class="st1" d="M-24.8,159.7c7.5-4.3,10.1,4,10.2,4.1c0.1,0,7.1-4.9,9.7,4.1"/>
	<line class="st2" x1="-10.8" y1="126.2" x2="9" y2="134.5"/>
	<polyline class="st2" points="-24.8,159.9 -21.3,180 -4.9,168.1 	"/>
	<path class="st3" d="M-3.6,108.6c0,0,3.7-1,11,1.9c7.7,3.1,8.9,6.4,8.9,6.4l-3.9,9.2L-7.5,118L-3.6,108.6z"/>
	<line class="st2" x1="7.7" y1="137.8" x2="-4.9" y2="168.2"/>
	<line class="st2" x1="-12.2" y1="129.6" x2="-24.8" y2="160"/>
	<line class="st2" x1="-2.2" y1="133.9" x2="-12.6" y2="159.1"/>
	<line class="st2" x1="-8.9" y1="122.1" x2="10.9" y2="130.4"/>
</g>
</svg>
