<svg xmlns="http://www.w3.org/2000/svg" version="1.1" x="0" y="0" viewBox="0 0 137.5 118.8" enable-background="new 0 0 137.5 118.8" xml:space="preserve"><path fill="#E7AB3F" d="M100.8 81.3h-64c-5.8 0-10.5-4.7-10.5-10.5V33.2c0-5.8 4.7-10.5 10.5-10.5h63c6.3 0 11.5 5.2 11.5 11.5v36.6C111.3 76.6 106.6 81.3 100.8 81.3zM36.8 25.7c-4.1 0-7.5 3.4-7.5 7.5v37.6c0 4.1 3.4 7.5 7.5 7.5h64c4.1 0 7.5-3.4 7.5-7.5V34.2c0-4.7-3.8-8.5-8.5-8.5H36.8z"/><polygon fill="#E7AB3F" points="84.4 93.4 52.9 93.4 54.7 82.6 82.7 82.6 "/><rect x="36.4" y="93.5" fill="#E7AB3F" width="65" height="2.6"/><circle fill="#E7AB3F" cx="68.9" cy="72.7" r="3"/><path fill="#E7AB3F" d="M105.4 67.5L105.4 67.5l-73.9-0.1c-0.3 0-0.5-0.1-0.7-0.3 -0.2-0.2-0.3-0.4-0.3-0.7l0.1-31.1c0-6 1.6-7.5 7.5-7.5h59.7c6.5 0 8.6 2.1 8.6 8.6l0 30.1c0 0.3-0.1 0.5-0.3 0.7S105.7 67.5 105.4 67.5zM32.5 65.5l71.9 0.1 0-29.1c0-5.5-1.2-6.6-6.6-6.6H38.2c-4.9 0-5.5 0.7-5.5 5.5L32.5 65.5z"/></svg>